<svg
        fill="currentColor"
        viewBox="0 0 512 512"
        xmlns="http://www.w3.org/2000/svg"><g><path d="m431.36 80.64a248 248 0 1 0 -350.72 350.72 248 248 0 1 0 350.72-350.72zm-11.31 339.41a232 232 0 0 1 -328.1-328.1 232 232 0 0 1 328.1 328.1z"/><path d="m408.73 103.26a216 216 0 1 0 -305.46 305.48 216 216 0 1 0 305.46-305.48zm-152.73 352.74c-110.28 0-200-89.72-200-200s89.72-200 200-200 200 89.72 200 200-89.72 200-200 200z"/><path d="m256 192a80 80 0 1 0 80 80 80.091 80.091 0 0 0 -80-80zm0 144a64 64 0 1 1 64-64 64.072 64.072 0 0 1 -64 64z"/><path d="m256 216a56 56 0 1 0 56 56 56.063 56.063 0 0 0 -56-56zm0 96a40 40 0 1 1 40-40 40.045 40.045 0 0 1 -40 40z"/><path d="m372 160h-69.75l-6.49-25.94a8 8 0 0 0 -7.76-6.06h-64a8 8 0 0 0 -7.76 6.06l-6.49 25.94h-69.75a28.031 28.031 0 0 0 -28 28v168a28.031 28.031 0 0 0 28 28h232a28.031 28.031 0 0 0 28-28v-168a28.031 28.031 0 0 0 -28-28zm-141.75-16h51.5l4 16h-59.5zm153.75 212a12.01 12.01 0 0 1 -12 12h-232a12.01 12.01 0 0 1 -12-12v-168a12.01 12.01 0 0 1 12-12h232a12.01 12.01 0 0 1 12 12z"/></g></svg>