<?xml version="1.0"?>
<svg
        fill="currentColor"
        xmlns="http://www.w3.org/2000/svg"
        id="outline"
        viewBox="0 0 512 512">
    <path d="M483.279,420.517a59.9,59.9,0,0,1-77.622-6.056,8,8,0,0,0-11.314,0,59.95,59.95,0,0,1-84.686,0,8,8,0,0,0-11.314,0,59.95,59.95,0,0,1-84.686,0,8,8,0,0,0-11.314,0,59.95,59.95,0,0,1-84.686,0,8,8,0,0,0-11.314,0,59.9,59.9,0,0,1-77.622,6.056l-9.442,12.916A75.9,75.9,0,0,0,112,430.892a76.024,76.024,0,0,0,96,0,75.918,75.918,0,0,0,96.007,0,76.022,76.022,0,0,0,96,0,75.9,75.9,0,0,0,92.718,2.541Z"/>
    <rect x="223.056" y="280.118" width="17.889" height="16" transform="translate(-104.357 134.171) rotate(-26.565)"/><rect x="255.056" y="264.118" width="17.889" height="16" transform="translate(-93.823 146.793) rotate(-26.565)"/>
    <path d="M455.2,94.854a41.045,41.045,0,0,0-1.034,25.981,41.121,41.121,0,0,0-10.614,54.078l1.477,2.461L421.143,191.7l-13.382-53.526a8,8,0,0,0-11.339-5.215l-32,16A8,8,0,0,0,360,156.118V198.7l-62.1,24.842A63.788,63.788,0,0,1,284.88,227.2l-15.6-36.394,29.6-10.615a34.128,34.128,0,0,0,22.321-34.574l24.435-7.662a31.4,31.4,0,0,0,23.55-30.718,48.081,48.081,0,0,0,38.782-45.978A48.075,48.075,0,0,0,440,16H424a32.036,32.036,0,0,1-32,32H368V64h23.756A32.04,32.04,0,0,1,360,92.118a8,8,0,0,0-7.589,10.529,15.426,15.426,0,0,1-10.894,19.845c-.153.038-.3.081-.453.128l-31.457,9.864a8,8,0,0,0-5.2,10.163,17.979,17.979,0,0,1-10.925,22.479l-30.58,10.966a8,8,0,0,0-9.436-3.564L221.545,183.17a25.506,25.506,0,0,1,16.065-28.73l29.2-10.949a8,8,0,0,0,4.346-11.069,23.03,23.03,0,0,1,13.316-32.146l14.059-4.687a8,8,0,0,0,4.625-11.167,8.461,8.461,0,0,1,4.425-11.638L327.05,65l10.294,15.442,13.312-8.876L336.245,49.945a9.3,9.3,0,0,1,2.575-12.877l9.618-6.412-8.875-13.312-9.618,6.411a25.329,25.329,0,0,0-10.531,27.063l-17.776,7.111A24.439,24.439,0,0,0,286.362,82.78L279.411,85.1a39.033,39.033,0,0,0-25.6,46.18l-21.819,8.182a41.434,41.434,0,0,0-25.674,48.787l-.848.282a8,8,0,0,0-5.47,7.59v61.067L176.382,269.9a61.5,61.5,0,0,0-32.351,52.265l-14.685,29.37a34.4,34.4,0,0,0,39.081,48.719,344.6,344.6,0,0,0,95.351-39.788l35.138-21.334,124,16.909A7.99,7.99,0,0,0,429,354.365l40-32a8,8,0,0,0-1.2-13.291l-31.8-17.123,15.895-8.842-7.778-13.983-24.842,13.82-14.736-7.935,39.619-24.055A8,8,0,0,0,446.86,240l-4.987-8.312,50.1-28.627-7.938-13.891-50.392,28.8-6.663-11.106,33.14-19.883A8,8,0,0,0,462.86,176l-5.593-9.321a25.131,25.131,0,0,1,10.311-35.408,8,8,0,0,0,3.577-10.733A24.92,24.92,0,0,1,484.19,86.258l6.781-2.713L485.029,68.69,478.247,71.4A41.029,41.029,0,0,0,455.2,94.854ZM216,201.884l35.547-11.849,16.428,38.333a80.234,80.234,0,0,0-31.741,9.307L216,248.57Zm172.194,64.329-24.4-13.139a8,8,0,0,0-7.762.1l-39.678,22.673,7.939,13.891,35.823-20.47,43.22,23.272a25.665,25.665,0,0,0-.992,37.237l11.314-11.315a9.667,9.667,0,0,1,1.766-15.066l3.971-2.209,30.163,16.242-27.875,22.3L272.425,319.375l27.984-15.991-7.939-13.892-48.439,27.68a8,8,0,0,0,2.888,14.872l26.822,3.658-18.267,11.09a328.589,328.589,0,0,1-90.928,37.943,18.374,18.374,0,0,1-20.89-26.042l15.5-31a7.979,7.979,0,0,0,.808-2.937,108.733,108.733,0,0,0,52.475-17.984l-8.875-13.313A92.75,92.75,0,0,1,162.8,308.42a45.5,45.5,0,0,1,21.171-24.429l59.851-32.228a64.162,64.162,0,0,1,30.323-7.645,79.6,79.6,0,0,0,29.7-5.719l67.133-26.854A8,8,0,0,0,376,204.118V161.062l18.658-9.329,13.581,54.325a7.989,7.989,0,0,0,.9,2.176l19.906,33.176Z"/>
    <rect x="463.056" y="256.118" width="17.889" height="16" transform="translate(-68.287 238.969) rotate(-26.565)"/>
</svg>
